<?xml version="1.0" standalone="no"?>
<!DOCTYPE svg PUBLIC "-//W3C//DTD SVG 20010904//EN"
 "http://www.w3.org/TR/2001/REC-SVG-20010904/DTD/svg10.dtd">
<svg version="1.0" xmlns="http://www.w3.org/2000/svg"
 width="701.000000pt" height="1280.000000pt" viewBox="0 0 701.000000 1280.000000"
 preserveAspectRatio="xMidYMid meet">
<metadata>
Created by potrace 1.15, written by Peter Selinger 2001-2017
</metadata>
<g transform="translate(0.000000,1280.000000) scale(0.100000,-0.100000)"
fill="#e0e0e0" stroke="none">
<path d="M4560 12789 c-191 -25 -355 -72 -515 -148 -202 -96 -342 -198 -501
-363 -615 -639 -613 -1661 5 -2301 247 -255 537 -414 891 -488 86 -18 140 -22
300 -23 233 -1 354 18 555 85 110 37 338 157 435 229 104 77 245 212 320 305
525 658 482 1596 -99 2198 -144 149 -282 251 -456 337 -200 99 -345 142 -565
170 -97 12 -275 11 -370 -1z"/>
<path d="M2495 9870 c-277 -26 -557 -131 -797 -300 -112 -78 -302 -260 -403
-385 -535 -661 -853 -1791 -891 -3164 -6 -222 -9 -251 -23 -251 -9 0 -50 -16
-90 -35 -170 -81 -290 -273 -291 -461 -1 -225 155 -438 368 -504 76 -24 211
-27 288 -6 144 38 268 142 333 278 43 92 54 138 53 240 -2 170 -89 325 -239
426 l-53 35 0 157 c0 184 14 447 36 680 141 1500 634 2531 1360 2845 84 36
236 79 319 90 l50 6 -40 -27 c-459 -312 -786 -999 -980 -2057 -191 -1043 -216
-1730 -80 -2267 71 -283 194 -508 375 -691 188 -188 434 -314 729 -373 l116
-23 28 -57 c43 -89 103 -272 128 -392 21 -95 24 -136 23 -314 0 -183 -3 -219
-27 -330 -111 -524 -429 -1056 -1106 -1853 -101 -119 -140 -172 -133 -179 8
-8 -11 -31 -63 -80 -102 -95 -130 -153 -130 -269 0 -77 3 -91 35 -154 103
-202 367 -357 710 -416 104 -18 345 -15 448 5 241 47 424 156 498 297 26 48
29 64 29 149 0 89 -2 101 -34 163 -65 128 -228 259 -406 328 -150 58 -356 99
-500 99 l-46 0 99 123 c494 610 791 1130 910 1592 45 171 62 289 69 460 9 240
-26 474 -105 708 -40 116 -40 117 -19 121 143 30 193 42 258 66 l76 27 54 -22
c256 -105 503 -324 706 -630 168 -252 314 -587 396 -910 149 -582 140 -1135
-24 -1596 -30 -86 -31 -87 -100 -134 -82 -56 -129 -109 -167 -185 -23 -47 -27
-68 -27 -140 0 -72 4 -94 28 -144 34 -73 156 -198 245 -249 295 -172 713 -215
1043 -107 181 60 321 165 381 288 28 57 33 76 33 142 0 63 -5 85 -31 140 -120
253 -518 432 -927 418 -53 -2 -97 0 -97 4 0 3 11 53 24 110 109 461 95 997
-40 1533 -112 444 -334 902 -591 1220 -145 179 -355 368 -502 452 -25 15 -47
27 -48 28 -2 1 39 44 90 96 324 327 568 827 742 1521 94 370 183 931 226 1418
16 179 16 635 0 780 -19 172 -65 393 -110 518 -31 89 -35 110 -22 102 43 -23
255 -217 344 -314 508 -559 851 -1350 1127 -2595 l32 -143 -45 -47 c-99 -101
-148 -219 -148 -356 -1 -99 12 -158 52 -239 88 -180 260 -287 464 -288 142 -1
254 43 353 136 70 66 107 120 138 202 115 306 -84 645 -410 696 l-76 12 -6 36
c-16 92 -133 568 -186 755 -398 1405 -988 2255 -1874 2698 -219 110 -443 190
-694 247 -52 12 -151 44 -220 70 -233 89 -378 129 -585 159 -102 15 -326 21
-430 11z"/>
</g>
</svg>