<?xml version="1.0" standalone="no"?>
<!DOCTYPE svg PUBLIC "-//W3C//DTD SVG 20010904//EN"
 "http://www.w3.org/TR/2001/REC-SVG-20010904/DTD/svg10.dtd">
<svg version="1.0" xmlns="http://www.w3.org/2000/svg"
 width="1044.000000pt" height="1280.000000pt" viewBox="0 0 1044.000000 1280.000000"
 preserveAspectRatio="xMidYMid meet">
<metadata>
Created by potrace 1.15, written by Peter Selinger 2001-2017
</metadata>
<g transform="translate(0.000000,1280.000000) scale(0.100000,-0.100000)"
fill="#e0e0e0" stroke="none">
<path d="M4720 12789 c-275 -34 -528 -127 -751 -278 -423 -285 -685 -715 -744
-1221 -19 -157 -19 -235 -1 -382 27 -211 74 -374 161 -553 234 -480 670 -816
1205 -926 99 -20 143 -24 320 -23 226 0 309 11 491 65 475 141 877 500 1073
959 87 204 126 383 133 620 14 426 -122 816 -398 1147 -248 296 -628 514
-1012 579 -112 19 -374 26 -477 13z"/>
<path d="M5885 9510 c-129 -6 -131 -6 -234 -53 -354 -163 -604 -300 -1096
-602 -418 -257 -646 -380 -902 -489 -383 -163 -839 -277 -1373 -345 -132 -17
-510 -51 -560 -51 -44 1 -45 2 -70 53 -14 28 -53 81 -88 118 -205 219 -545
225 -756 14 -105 -106 -156 -229 -156 -380 0 -148 52 -270 159 -375 107 -105
218 -150 372 -150 202 0 386 113 471 290 18 36 32 66 33 67 1 2 89 10 196 18
1116 89 1780 284 2586 761 68 40 123 71 123 69 0 -2 -18 -46 -41 -97 -177
-402 -314 -899 -448 -1633 -97 -529 -123 -1116 -65 -1515 63 -438 211 -787
434 -1023 l79 -83 -72 -23 c-216 -69 -545 -217 -776 -351 -791 -456 -1542
-1208 -2041 -2045 -88 -148 -232 -434 -289 -577 -24 -60 -46 -108 -50 -108 -3
0 -22 5 -41 10 -402 120 -896 35 -1137 -193 -101 -97 -138 -171 -138 -282 0
-67 5 -90 28 -139 56 -120 150 -205 314 -283 298 -142 729 -149 1047 -17 151
63 296 185 345 290 61 128 36 275 -65 392 l-32 37 30 85 c120 341 402 820 713
1210 219 274 550 615 800 824 537 447 1082 738 1649 880 l130 33 67 -23 c350
-122 757 -124 1052 -3 l70 28 136 -25 c776 -143 1511 -439 2181 -879 607 -399
1124 -935 1375 -1425 l54 -107 -93 -16 c-283 -50 -534 -183 -741 -391 -161
-163 -241 -310 -253 -468 -29 -386 460 -522 984 -274 143 68 258 150 380 271
181 179 257 328 258 500 1 77 -3 98 -25 145 -14 31 -40 72 -57 91 -18 20 -48
80 -71 143 -145 385 -417 783 -791 1156 -185 185 -331 312 -541 470 -646 486
-1426 856 -2219 1051 -91 23 -167 43 -169 45 -2 2 22 31 54 66 329 362 595
1021 783 1943 204 998 238 1666 112 2190 -72 299 -208 549 -392 720 l-73 68
120 -7 c235 -13 1188 -84 1545 -116 434 -38 464 -40 466 -43 1 -1 -12 -47 -28
-102 -64 -217 -198 -516 -341 -765 -62 -109 -301 -475 -316 -484 -4 -3 -36 7
-72 21 -86 35 -208 42 -312 19 -166 -37 -309 -166 -377 -341 -20 -50 -24 -78
-24 -175 0 -97 4 -125 24 -175 60 -156 178 -273 326 -326 74 -26 210 -35 287
-20 77 17 184 72 245 126 144 130 209 349 157 533 l-17 60 56 75 c94 127 259
384 352 547 181 319 314 640 389 938 23 93 77 383 72 388 -2 3 -112 13 -582
54 -258 23 -576 50 -705 60 -74 6 -188 15 -252 20 -545 44 -1326 89 -1673 95
-148 3 -292 7 -320 8 -27 1 -108 0 -180 -3z"/>
</g>
</svg>